<?xml version="1.0" encoding="UTF-8" standalone="no"?>
<svg
   width="14"
   height="10"
   version="1.1"
   viewBox="0 0 14 10"
   id="svg2"
   xmlns="http://www.w3.org/2000/svg"
   xmlns:svg="http://www.w3.org/2000/svg">
  <defs
     id="defs2">
    <linearGradient
       id="a"
       x1=".996273"
       x2="12.9963"
       y1="5.49847"
       y2="5.49847"
       gradientTransform="matrix(1.08307,0,0,0.999644,-0.577426,-0.496514)"
       gradientUnits="userSpaceOnUse">
      <stop
         stop-color="#c6ecc8"
         offset="0"
         id="stop1"
         style="stop-color:#b3c4e5;stop-opacity:1;" />
      <stop
         stop-color="#e7f6e8"
         offset="1"
         id="stop2"
         style="stop-color:#dae1f1;stop-opacity:1;" />
    </linearGradient>
  </defs>
  <g
     id="g2"
     transform="matrix(0.91078818,0,0,0.91078818,0.62448302,0.44605892)">
    <rect
       x="0.50160301"
       y="0.50160301"
       width="12.9968"
       height="8.9967899"
       fill="url(#a)"
       stroke="#424242"
       stroke-linecap="round"
       style="fill:url(#a);paint-order:stroke fill markers"
       id="rect2" />
    <path
       d="M 7.1775962,8.0677967 V 2.81845 h 1.7008456 q 0.9667965,0 1.2604162,0.078776 0.451172,0.118164 0.755533,0.5156248 0.304362,0.39388 0.304362,1.0205074 0,0.4833982 -0.175455,0.8128251 -0.175456,0.329427 -0.447591,0.5192056 -0.268555,0.1861978 -0.547852,0.2470702 -0.3795568,0.075195 -1.099283,0.075195 H 8.2374916 V 8.0677967 Z M 8.2374916,3.7064705 v 1.4895827 h 0.5800778 q 0.6266274,0 0.8378903,-0.082357 Q 9.8667226,5.0313397 9.9848866,4.855884 10.106631,4.6804284 10.106631,4.4476811 10.106631,4.1612229 9.9383372,3.975025 9.770043,3.7888272 9.5122306,3.7422777 9.322452,3.7064705 8.7495356,3.7064705 Z"
       id="text1"
       style="font-weight:bold;font-size:7.33333px;line-height:100%;font-family:Arial;-inkscape-font-specification:'Arial Bold';fill:#424242;stroke-width:0.755906"
       transform="matrix(1.0979501,0,0,1.0979501,-0.68565121,-0.48975045)"
       aria-label="P" />
  </g>
</svg>
