<?xml version="1.0" encoding="UTF-8" standalone="no"?>
<svg
   width="14"
   height="10"
   version="1.1"
   viewBox="0 0 14 10"
   id="svg2"
   xmlns="http://www.w3.org/2000/svg"
   xmlns:svg="http://www.w3.org/2000/svg">
  <defs
     id="defs2">
    <linearGradient
       id="a"
       x1=".996273"
       x2="12.9963"
       y1="5.49847"
       y2="5.49847"
       gradientTransform="matrix(1.08307,0,0,0.999644,-0.577426,-0.496514)"
       gradientUnits="userSpaceOnUse">
      <stop
         stop-color="#c6ecc8"
         offset="0"
         id="stop1"
         style="stop-color:#b3c4e5;stop-opacity:1;" />
      <stop
         stop-color="#e7f6e8"
         offset="1"
         id="stop2"
         style="stop-color:#dae1f1;stop-opacity:1;" />
    </linearGradient>
  </defs>
  <g
     id="g2"
     transform="matrix(0.91078818,0,0,0.91078818,0.62448302,0.44605892)">
    <rect
       x="0.50160301"
       y="0.50160301"
       width="12.9968"
       height="8.9967899"
       fill="url(#a)"
       stroke="#424242"
       stroke-linecap="round"
       style="fill:url(#a);paint-order:stroke fill markers"
       id="rect2" />
    <path
       d="M 4.37237,8.3682881 V 4.0376857 h 1.4031625 q 0.7975871,0 1.0398172,0.064989 0.3722073,0.097483 0.6232995,0.4253798 0.2510922,0.3249429 0.2510922,0.8418975 0,0.3987935 -0.1447472,0.6705639 -0.1447473,0.27177 -0.3692533,0.4283334 -0.221552,0.1536093 -0.451966,0.2038278 -0.3131268,0.062035 -0.9068861,0.062035 H 5.2467617 V 8.3682881 Z M 5.2467617,4.7702842 V 5.9991591 H 5.725314 q 0.5169546,0 0.6912422,-0.067942 0.1742875,-0.067943 0.2717704,-0.2126903 0.1004368,-0.1447473 0.1004368,-0.336759 0,-0.2363221 -0.1388392,-0.3899314 Q 6.511085,4.8382268 6.2983951,4.7998245 6.1418317,4.7702842 5.6691875,4.7702842 Z"
       id="text1"
       style="font-weight:bold;font-size:8.05163px;line-height:100%;font-family:Arial;-inkscape-font-specification:'Arial Bold';fill:#424242;stroke-width:0.623607"
       aria-label="P" />
    <path
       d="M 12.376798,8.3682885 H 8.1475475 V 7.2473908 H 8.644974 v 0.5199344 h 3.234397 V 7.2473908 h 0.497427 z"
       id="text2"
       style="font-weight:bold;font-size:6.13488px;line-height:100%;font-family:Arial;-inkscape-font-specification:'Arial Bold';fill:#424242;stroke-width:0.475153"
       aria-label="[" />
  </g>
</svg>
